<?xml version="1.0" standalone="no"?>
<!DOCTYPE svg PUBLIC "-//W3C//DTD SVG 20010904//EN"
 "http://www.w3.org/TR/2001/REC-SVG-20010904/DTD/svg10.dtd">
<svg version="1.0" xmlns="http://www.w3.org/2000/svg"
 width="107.000000pt" height="107.000000pt" viewBox="0 0 107.000000 107.000000"
 preserveAspectRatio="xMidYMid meet">
<metadata>
Created by potrace 1.14, written by Peter Selinger 2001-2017
</metadata>
<g transform="translate(0.000000,107.000000) scale(0.100000,-0.100000)"
fill="#000000" stroke="none">
<path d="M302 980 c-79 -21 -147 -41 -151 -46 -4 -5 -18 -36 -31 -69 -12 -33
-28 -73 -35 -90 -7 -16 -27 -67 -45 -113 l-32 -82 47 -183 c26 -100 51 -188
55 -196 4 -8 48 -24 96 -37 93 -23 320 -90 332 -98 4 -2 101 29 217 68 l210
72 52 194 52 194 -102 149 c-56 83 -109 154 -117 158 -16 9 -394 120 -401 118
-2 -1 -68 -18 -147 -39z"/>
</g>
</svg>
